HIERARCHY
ROOT hip
{
  OFFSET 0.0 0.0 0.0
  CHANNELS 6 Xposition Yposition Zposition Zrotation Yrotation Xrotation
  JOINT abdomen
  {
    OFFSET 0.0 20.6881 -0.73152
    CHANNELS 3 Zrotation Xrotation Yrotation
    JOINT chest
    {
      OFFSET 0.0 11.7043 -0.48768
      CHANNELS 3 Zrotation Xrotation Yrotation
      JOINT neck
      {
        OFFSET 0.0 22.1894 -2.19456
        CHANNELS 3 Zrotation Xrotation Yrotation
        JOINT head
        {
          OFFSET -0.24384 7.07133 1.2192
          CHANNELS 3 Zrotation Xrotation Yrotation
          JOINT leftEye
          {
            OFFSET 4.14528 8.04674 8.04672
            CHANNELS 3 Zrotation Xrotation Yrotation
            End Site
            {
              OFFSET 1.0 0.0 0.0
            }
          }
          JOINT rightEye
          {
            OFFSET -3.6576 8.04674 8.04672
            CHANNELS 3 Zrotation Xrotation Yrotation
            End Site
            {
              OFFSET 1.0 0.0 0.0
            }
          }
        }
      }
      JOINT rCollar
      {
        OFFSET -2.68224 19.2634 -4.8768
        CHANNELS 3 Zrotation Xrotation Yrotation
        JOINT rShldr
        {
          OFFSET -8.77824 -1.95073 1.46304
          CHANNELS 3 Zrotation Xrotation Yrotation
          JOINT rForeArm
          {
            OFFSET -28.1742 -1.7115 0.48768
            CHANNELS 3 Zrotation Xrotation Yrotation
            JOINT rHand
            {
              OFFSET -22.5879 0.773209 7.07136
              CHANNELS 3 Zrotation Xrotation Yrotation
              JOINT rThumb1
              {
                OFFSET -1.2192 -0.487915 3.41376
                CHANNELS 3 Zrotation Xrotation Yrotation
                JOINT rThumb2
                {
                  OFFSET -3.37035 -0.52449 3.41376
                  CHANNELS 3 Zrotation Xrotation Yrotation
                  End Site
                  {
                    OFFSET -1.78271 -1.18214 1.43049
                  }
                }
              }
              JOINT rIndex1
              {
                OFFSET -7.75947 0.938293 5.60832
                CHANNELS 3 Zrotation Xrotation Yrotation
                JOINT rIndex2
                {
                  OFFSET -2.54057 -0.884171 1.56538
                  CHANNELS 3 Zrotation Xrotation Yrotation
                  End Site
                  {
                    OFFSET -1.62519 -0.234802 1.16502
                  }
                }
              }
              JOINT rMid1
              {
                OFFSET -8.24714 1.18213 3.41376
                CHANNELS 3 Zrotation Xrotation Yrotation
                JOINT rMid2
                {
                  OFFSET -3.10165 -0.590103 1.0647
                  CHANNELS 3 Zrotation Xrotation Yrotation
                  End Site
                  {
                    OFFSET -2.48547 -0.328903 0.83742
                  }
                }
              }
              JOINT rRing1
              {
                OFFSET -8.82822 0.546677 1.51678
                CHANNELS 3 Zrotation Xrotation Yrotation
                JOINT rRing2
                {
                  OFFSET -2.60934 -0.819778 -0.0198488
                  CHANNELS 3 Zrotation Xrotation Yrotation
                  End Site
                  {
                    OFFSET -2.33842 -0.294052 0.168128
                  }
                }
              }
              JOINT rPinky1
              {
                OFFSET -8.27202 -0.0477905 -0.4584
                CHANNELS 3 Zrotation Xrotation Yrotation
                JOINT rPinky2
                {
                  OFFSET -1.82734 -0.647385 -0.700984
                  CHANNELS 3 Zrotation Xrotation Yrotation
                  End Site
                  {
                    OFFSET -1.69225 -0.51767 -0.607171
                  }
                }
              }
            }
          }
        }
      }
      JOINT lCollar
      {
        OFFSET 2.68224 19.2634 -4.8768
        CHANNELS 3 Zrotation Xrotation Yrotation
        JOINT lShldr
        {
          OFFSET 8.77824 -1.95073 1.46304
          CHANNELS 3 Zrotation Xrotation Yrotation
          JOINT lForeArm
          {
            OFFSET 28.1742 -1.7115 0.48768
            CHANNELS 3 Zrotation Xrotation Yrotation
            JOINT lHand
            {
              OFFSET 22.5879 0.773209 7.07136
              CHANNELS 3 Zrotation Xrotation Yrotation
              JOINT lThumb1
              {
                OFFSET 1.2192 -0.487915 3.41376
                CHANNELS 3 Zrotation Xrotation Yrotation
                JOINT lThumb2
                {
                  OFFSET 3.37035 -0.52449 3.41376
                  CHANNELS 3 Zrotation Xrotation Yrotation
                  End Site
                  {
                    OFFSET 1.78271 -1.18214 1.43049
                  }
                }
              }
              JOINT lIndex1
              {
                OFFSET 7.75947 0.938293 5.60832
                CHANNELS 3 Zrotation Xrotation Yrotation
                JOINT lIndex2
                {
                  OFFSET 2.54057 -0.884171 1.56538
                  CHANNELS 3 Zrotation Xrotation Yrotation
                  End Site
                  {
                    OFFSET 1.62519 -0.234802 1.16502
                  }
                }
              }
              JOINT lMid1
              {
                OFFSET 8.24714 1.18213 3.41376
                CHANNELS 3 Zrotation Xrotation Yrotation
                JOINT lMid2
                {
                  OFFSET 3.10165 -0.590103 1.0647
                  CHANNELS 3 Zrotation Xrotation Yrotation
                  End Site
                  {
                    OFFSET 2.48547 -0.328903 0.83742
                  }
                }
              }
              JOINT lRing1
              {
                OFFSET 8.82822 0.546677 1.51678
                CHANNELS 3 Zrotation Xrotation Yrotation
                JOINT lRing2
                {
                  OFFSET 2.60934 -0.819778 -0.0198488
                  CHANNELS 3 Zrotation Xrotation Yrotation
                  End Site
                  {
                    OFFSET 2.33842 -0.294052 0.168128
                  }
                }
              }
              JOINT lPinky1
              {
                OFFSET 8.27202 -0.0477905 -0.4584
                CHANNELS 3 Zrotation Xrotation Yrotation
                JOINT lPinky2
                {
                  OFFSET 1.82734 -0.647385 -0.700984
                  CHANNELS 3 Zrotation Xrotation Yrotation
                  End Site
                  {
                    OFFSET 1.69225 -0.51767 -0.607171
                  }
                }
              }
            }
          }
        }
      }
    }
  }
  JOINT rButtock
  {
    OFFSET -8.77824 4.35084 1.2192
    CHANNELS 3 Zrotation Xrotation Yrotation
    JOINT rThigh
    {
      OFFSET 0.0 -1.70687 -2.19456
      CHANNELS 3 Zrotation Xrotation Yrotation
      JOINT rShin
      {
        OFFSET 0.0 -36.8199 0.73152
        CHANNELS 3 Zrotation Xrotation Yrotation
        JOINT rFoot
        {
          OFFSET 0.73152 -45.1104 -5.12064
          CHANNELS 3 Zrotation Xrotation Yrotation
          End Site
          {
            OFFSET -1.1221 -3.69964 12.103
          }
        }
      }
    }
  }
  JOINT lButtock
  {
    OFFSET 8.77824 4.35084 1.2192
    CHANNELS 3 Zrotation Xrotation Yrotation
    JOINT lThigh
    {
      OFFSET 0.0 -1.70687 -2.19456
      CHANNELS 3 Zrotation Xrotation Yrotation
      JOINT lShin
      {
        OFFSET 0.0 -36.8199 0.73152
        CHANNELS 3 Zrotation Xrotation Yrotation
        JOINT lFoot
        {
          OFFSET -0.73152 -45.1104 -5.12064
          CHANNELS 3 Zrotation Xrotation Yrotation
          End Site
          {
            OFFSET 1.1221 -3.69964 12.103
          }
        }
      }
    }
  }
}
MOTION
Frames: 9
Frame Time: 0.00833333
8.433271999999999 82.0992 71.6514 13.3306 7.0711 10.3647 -16.451 8.12128 -4.8275 6.91988 -6.34309 -1.27621 5.02804 -2.62307 -0.287501 -7.76194 -4.36372 -2.49248 -0.0 0.0 0.0 -0.0 0.0 0.0 -1.67752e-13 3.68948e-13 3.75206e-14 78.6153 4.1673 -19.3195 -9.1639 -3.64852 16.2426 -0.002845 1.52283 0.214071 2.52656e-09 3.02511e-09 -2.58987e-09 4.3587e-09 5.22604e-09 -4.48197e-09 2.52656e-09 3.02511e-09 -2.58988e-09 7.73091 5.47488 0.417314 2.52656e-09 3.02511e-09 -2.58987e-09 2.90554 0.965183 0.102902 2.52657e-09 3.02511e-09 -2.58988e-09 10.2786 0.731801 0.0259123 2.52656e-09 3.02511e-09 -2.58988e-09 2.22167 -0.733487 -0.20892 -1.67807e-13 3.6894e-13 3.72224e-14 -72.7861 23.3293 -16.5264 15.3036 -8.05598 -28.2158 0.432112 -18.3599 2.67339 2.52606e-09 4.06918e-09 7.29998e-10 4.35948e-09 7.01546e-09 1.29107e-09 2.52606e-09 4.06917e-09 7.30017e-10 -7.73091 5.47488 -0.417314 2.52607e-09 4.06918e-09 7.30004e-10 -2.90554 0.965183 -0.102902 2.52606e-09 4.06918e-09 7.29999e-10 -10.2786 0.731801 -0.0259123 2.52607e-09 4.06918e-09 7.29998e-10 -2.22167 -0.733487 0.20892 -2.03217e-16 0.0 -3.88251e-19 -26.7101 -50.1984 -17.0735 -0.305786 37.4123 0.499729 -3.14069 -1.34859 -19.4794 2.03217e-16 0.0 3.88251e-19 -15.0591 5.09886 1.68839 -9.01387e-06 10.3861 -0.3249 2.02217 -5.49303 10.8717
8.39809 82.1696 73.23760000000001 13.1812 7.4747 10.4328 -16.2046 7.92874 -5.26144 6.96173 -6.23059 -1.39256 5.02199 -2.61487 -0.263677 -7.74029 -4.34176 -2.44036 -0.0 0.0 0.0 -0.0 0.0 0.0 -2.97813e-13 4.75533e-13 8.44252e-15 78.3176 2.87229 -20.0274 -8.93056 -3.51677 15.8101 -0.00633619 2.35402 0.331002 3.33961e-09 3.31854e-09 -3.70577e-09 5.75764e-09 5.72748e-09 -6.41442e-09 3.33961e-09 3.31854e-09 -3.70578e-09 7.73091 5.47488 0.417314 3.33961e-09 3.31854e-09 -3.70577e-09 2.90554 0.965183 0.102902 3.33962e-09 3.31854e-09 -3.70578e-09 10.2786 0.731801 0.0259123 3.33961e-09 3.31854e-09 -3.70577e-09 2.22167 -0.733487 -0.20892 -2.9785e-13 4.75527e-13 8.16298e-15 -72.0133 24.0519 -17.3185 15.8705 -8.57052 -29.3906 0.464474 -18.9873 2.77199 3.5144e-09 6.2203e-09 6.53864e-10 6.07012e-09 1.07406e-08 1.17025e-09 3.51439e-09 6.2203e-09 6.53884e-10 -7.73091 5.47488 -0.417314 3.5144e-09 6.2203e-09 6.5387e-10 -2.90554 0.965183 -0.102902 3.51439e-09 6.2203e-09 6.53866e-10 -10.2786 0.731801 -0.0259123 3.5144e-09 6.22031e-09 6.53863e-10 -2.22167 -0.733487 0.20892 -2.03217e-16 0.0 -3.88251e-19 -26.0749 -49.9619 -16.1698 -0.271613 35.3071 0.468964 -3.26191 -1.77271 -19.6403 2.03217e-16 0.0 3.88251e-19 -14.5817 7.01061 1.30224 -0.00463263 8.59308 -0.292211 1.68509 -4.31379 10.1701
8.350188 82.2357 74.861 12.9648 7.9203 10.4524 -15.8737 7.73539 -5.72037 6.98112 -6.11619 -1.5172 5.0074 -2.57836 -0.244979 -7.74776 -4.32321 -2.39463 -0.0 0.0 0.0 -0.0 0.0 0.0 -3.6825e-13 5.11773e-13 -2.0012e-14 77.9428 1.48734 -20.722 -8.68554 -3.38061 15.3576 -0.0126083 3.24689 0.456839 3.5763e-09 3.16873e-09 -4.45366e-09 6.1599e-09 5.4617e-09 -7.71142e-09 3.5763e-09 3.16873e-09 -4.45367e-09 7.73091 5.47488 0.417314 3.57629e-09 3.16873e-09 -4.45366e-09 2.90554 0.965183 0.102902 3.5763e-09 3.16873e-09 -4.45366e-09 10.2786 0.731801 0.0259123 3.57629e-09 3.16873e-09 -4.45366e-09 2.22167 -0.733487 -0.20892 -3.68272e-13 5.1177e-13 -2.02419e-14 -71.2579 24.7347 -18.0343 16.44 -9.10743 -30.5946 0.490838 -19.4986 2.85263 3.88343e-09 7.88436e-09 1.71533e-10 6.7155e-09 1.36327e-08 3.42424e-10 3.88343e-09 7.88436e-09 1.71553e-10 -7.73091 5.47488 -0.417314 3.88343e-09 7.88436e-09 1.71537e-10 -2.90554 0.965183 -0.102902 3.88343e-09 7.88436e-09 1.71534e-10 -10.2786 0.731801 -0.0259123 3.88344e-09 7.88436e-09 1.71529e-10 -2.22167 -0.733487 0.20892 -2.03217e-16 0.0 -3.88251e-19 -25.3629 -49.5894 -15.1859 -0.239437 33.4272 0.458528 -3.54154 -2.58938 -19.8677 2.03217e-16 0.0 3.88251e-19 -13.9806 8.94133 0.756059 -0.00946717 6.78252 -0.261089 1.34869 -2.99923 9.3876
8.279136 82.2901 76.5266 12.6585 8.3704 10.4074 -15.4682 7.552 -6.14734 6.98082 -6.00352 -1.63316 4.98918 -2.52639 -0.232045 -7.78515 -4.29783 -2.35846 -0.0 0.0 0.0 -0.0 0.0 0.0 -3.91354e-13 4.96079e-13 -4.59026e-14 77.5013 0.00769528 -21.4173 -8.43862 -3.24552 14.9035 -0.0214657 4.17819 0.588321 3.43519e-09 2.7199e-09 -4.77208e-09 5.91104e-09 4.68031e-09 -8.26519e-09 3.43519e-09 2.7199e-09 -4.77209e-09 7.73091 5.47488 0.417314 3.43518e-09 2.7199e-09 -4.77208e-09 2.90554 0.965183 0.102902 3.43519e-09 2.7199e-09 -4.77208e-09 10.2786 0.731801 0.0259123 3.43518e-09 2.71991e-09 -4.77207e-09 2.22167 -0.733487 -0.20892 -3.91365e-13 4.9608e-13 -4.60796e-14 -70.5354 25.3715 -18.678 16.9891 -9.64332 -31.7819 0.511416 -19.8941 2.91525 3.83589e-09 8.8444e-09 -3.911e-10 6.64141e-09 1.53084e-08 -6.28403e-10 3.83589e-09 8.8444e-09 -3.91081e-10 -7.73091 5.47488 -0.417314 3.8359e-09 8.8444e-09 -3.91099e-10 -2.90554 0.965183 -0.102902 3.83589e-09 8.8444e-09 -3.91101e-10 -10.2786 0.731801 -0.0259123 3.8359e-09 8.8444e-09 -3.91108e-10 -2.22167 -0.733487 0.20892 -2.03217e-16 0.0 -3.88251e-19 -24.5718 -49.1118 -14.2335 -0.211532 31.8756 0.456653 -3.85026 -3.48928 -20.0086 2.03217e-16 0.0 3.88251e-19 -13.2602 10.6708 0.175685 -0.0125865 5.37133 -0.236564 1.04816 -1.65395 8.58026
8.19168 82.3266 78.2399 12.2861 8.8135 10.2784 -14.9968 7.38939 -6.48552 6.96341 -5.89623 -1.72351 4.97227 -2.47178 -0.22551 -7.85328 -4.25542 -2.33506 -0.0 0.0 0.0 -0.0 0.0 0.0 -3.79416e-13 4.46867e-13 -6.72886e-14 77.0014 -1.57083 -22.1277 -8.19997 -3.1171 14.4664 -0.0323187 5.1247 0.722176 3.11485e-09 2.11627e-09 -4.59959e-09 5.35661e-09 3.63493e-09 -7.96794e-09 3.11486e-09 2.11627e-09 -4.5996e-09 7.73091 5.47488 0.417314 3.11485e-09 2.11627e-09 -4.59958e-09 2.90554 0.965183 0.102902 3.11486e-09 2.11627e-09 -4.59959e-09 10.2786 0.731801 0.0259123 3.11485e-09 2.11628e-09 -4.59958e-09 2.22167 -0.733487 -0.20892 -3.7942e-13 4.4687e-13 -6.74377e-14 -69.8612 25.956 -19.2541 17.4988 -10.1578 -32.9053 0.526653 -20.174 2.95987 3.57451e-09 8.88346e-09 -7.08141e-10 6.19364e-09 1.53843e-08 -1.17822e-09 3.57451e-09 8.88347e-09 -7.08122e-10 -7.73091 5.47488 -0.417314 3.57452e-09 8.88346e-09 -7.08141e-10 -2.90554 0.965183 -0.102902 3.57451e-09 8.88346e-09 -7.08142e-10 -10.2786 0.731801 -0.0259123 3.57452e-09 8.88347e-09 -7.0815e-10 -2.22167 -0.733487 0.20892 -2.03217e-16 0.0 -3.88251e-19 -23.69 -48.5644 -13.4172 -0.192031 30.7552 0.452615 -4.04629 -4.16756 -19.9036 2.03217e-16 0.0 3.88251e-19 -12.4502 11.9792 -0.30906 -0.013099 4.7764 -0.223453 0.807989 -0.384575 7.80197
8.07373 82.3466 79.9957 11.8152 9.2071 10.06 -14.4118 7.25652 -6.72614 6.92007 -5.78426 -1.78619 4.95823 -2.41852 -0.227074 -7.96142 -4.20971 -2.33024 -0.0 0.0 0.0 -0.0 0.0 0.0 -3.14953e-13 3.38168e-13 -9.24287e-14 76.4285 -3.27865 -22.8675 -7.96939 -2.99563 14.0449 -0.0454449 6.08014 0.857732 2.53812e-09 1.18174e-09 -3.61948e-09 4.36566e-09 2.02275e-09 -6.27154e-09 2.53812e-09 1.18174e-09 -3.61949e-09 7.73091 5.47488 0.417314 2.53811e-09 1.18174e-09 -3.61948e-09 2.90554 0.965183 0.102902 2.53812e-09 1.18175e-09 -3.61948e-09 10.2786 0.731801 0.0259123 2.53811e-09 1.18175e-09 -3.61947e-09 2.22167 -0.733487 -0.20892 -3.14961e-13 3.38172e-13 -9.25886e-14 -69.2248 26.493 -19.7757 17.9777 -10.6621 -33.969 0.53524 -20.3223 2.98371 3.02222e-09 7.65876e-09 -6.79812e-10 5.23703e-09 1.32645e-08 -1.13582e-09 3.02222e-09 7.65877e-09 -6.79792e-10 -7.73091 5.47488 -0.417314 3.02223e-09 7.65876e-09 -6.79813e-10 -2.90554 0.965183 -0.102902 3.02222e-09 7.65876e-09 -6.79812e-10 -10.2786 0.731801 -0.0259123 3.02223e-09 7.65876e-09 -6.79822e-10 -2.22167 -0.733487 0.20892 -2.03217e-16 0.0 -3.88251e-19 -22.6651 -47.9225 -12.7833 -0.182607 30.1411 0.445355 -4.09566 -4.62203 -19.4134 2.03217e-16 0.0 3.88251e-19 -11.5262 12.7908 -0.665641 -0.0116488 5.21557 -0.225211 0.6492 0.653263 7.0943
7.935559999999999 82.3438 81.78450000000001 11.2964 9.5364 9.7776 -13.7236 7.1457 -6.89755 6.8524 -5.66934 -1.82944 4.94437 -2.35956 -0.235888 -8.10606 -4.16067 -2.34062 -0.0 0.0 0.0 -0.0 0.0 0.0 -1.98331e-13 1.70456e-13 -1.19432e-13 75.7734 -5.09853 -23.6362 -7.74273 -2.87865 13.6311 -0.0615898 7.05689 0.996935 1.64245e-09 -8.90797e-11 -1.96464e-09 2.82826e-09 -1.67115e-10 -3.40661e-09 1.64245e-09 -8.90789e-11 -1.96465e-09 7.73091 5.47488 0.417314 1.64245e-09 -8.90789e-11 -1.96464e-09 2.90554 0.965183 0.102902 1.64245e-09 -8.90778e-11 -1.96464e-09 10.2786 0.731801 0.0259123 1.64244e-09 -8.90721e-11 -1.96463e-09 2.22167 -0.733487 -0.20892 -1.98351e-13 1.7046e-13 -1.19625e-13 -68.6295 26.9865 -20.2333 18.4339 -11.1628 -34.9927 0.53652 -20.3443 2.98726 2.11461e-09 5.38098e-09 -4.84215e-10 3.66294e-09 9.31804e-09 -8.08953e-10 2.11461e-09 5.38099e-09 -4.84194e-10 -7.73091 5.47488 -0.417314 2.11461e-09 5.38098e-09 -4.84216e-10 -2.90554 0.965183 -0.102902 2.11461e-09 5.38098e-09 -4.84213e-10 -10.2786 0.731801 -0.0259123 2.11462e-09 5.38098e-09 -4.84224e-10 -2.22167 -0.733487 0.20892 -2.03217e-16 0.0 -3.88251e-19 -21.5192 -47.1827 -12.2708 -0.180375 29.9624 0.439438 -4.06303 -4.99154 -18.6527 2.03217e-16 0.0 3.88251e-19 -10.5031 13.2287 -0.959662 -0.00891824 6.43096 -0.238441 0.543844 1.55646 6.41628
7.778689999999999 82.3258 83.60470000000001 10.7445 9.7794 9.4477 -13.0284 7.04284 -6.99871 6.7784 -5.57286 -1.85176 4.92929 -2.29126 -0.248758 -8.26893 -4.07742 -2.35569 -0.0 0.0 0.0 -0.0 0.0 0.0 -6.86089e-14 1.79946e-15 -1.31136e-13 75.0553 -6.96405 -24.425 -7.52456 -2.76786 13.2339 -0.0806195 8.05972 1.14044 6.48407e-10 -1.29593e-09 -2.47984e-10 1.12151e-09 -2.24521e-09 -4.3347e-10 6.48411e-10 -1.29593e-09 -2.47991e-10 7.73091 5.47488 0.417314 6.48404e-10 -1.29593e-09 -2.47983e-10 2.90554 0.965183 0.102902 6.48409e-10 -1.29593e-09 -2.47981e-10 10.2786 0.731801 0.0259123 6.48402e-10 -1.29593e-09 -2.47973e-10 2.22167 -0.733487 -0.20892 -6.86401e-14 1.80357e-15 -1.31364e-13 -68.1122 27.4299 -20.5965 18.8519 -11.636 -35.9507 0.532322 -20.2719 2.97562 1.07338e-09 2.66338e-09 -2.12271e-10 1.85697e-09 4.6089e-09 -3.5201e-10 1.07338e-09 2.66339e-09 -2.12249e-10 -7.73091 5.47488 -0.417314 1.07338e-09 2.66339e-09 -2.12272e-10 -2.90554 0.965183 -0.102902 1.07338e-09 2.66339e-09 -2.12268e-10 -10.2786 0.731801 -0.0259123 1.07339e-09 2.66338e-09 -2.12279e-10 -2.22167 -0.733487 0.20892 -2.03217e-16 0.0 -3.88251e-19 -20.344 -46.4132 -11.816 -0.183633 30.1036 0.433186 -3.95911 -5.18155 -17.8391 2.03217e-16 0.0 3.88251e-19 -9.48161 13.372 -1.20549 -0.00402695 8.12581 -0.257779 0.448472 2.5976 5.69845
7.619959999999999 82.3024 85.4411 10.2247 9.9201 9.1057 -12.4223 6.93386 -7.02856 6.71606 -5.51621 -1.85162 4.91158 -2.20998 -0.262495 -8.43179 -3.92905 -2.36491 -0.0 0.0 0.0 -0.0 0.0 0.0 3.51518e-14 -1.09731e-13 -1.10375e-13 74.2987 -8.81096 -25.2218 -7.31957 -2.66499 12.8622 -0.102503 9.09336 1.28894 -2.23455e-10 -2.03855e-09 9.17574e-10 -3.77502e-10 -3.52206e-09 1.58756e-09 -2.23451e-10 -2.03855e-09 9.17568e-10 7.73091 5.47488 0.417314 -2.23457e-10 -2.03855e-09 9.17574e-10 2.90554 0.965183 0.102902 -2.23453e-10 -2.03855e-09 9.17577e-10 10.2786 0.731801 0.0259123 -2.23459e-10 -2.03854e-09 9.17584e-10 2.22167 -0.733487 -0.20892 3.51209e-14 -1.09727e-13 -1.10624e-13 -67.7102 27.8166 -20.8345 19.2191 -12.0602 -36.8163 0.524624 -20.1371 2.95398 1.20237e-10 1.1923e-10 4.50971e-11 2.04681e-10 2.01097e-10 8.05992e-11 1.20237e-10 1.19237e-10 4.51193e-11 -7.73091 5.47488 -0.417314 1.20239e-10 1.19235e-10 4.50971e-11 -2.90554 0.965183 -0.102902 1.20234e-10 1.19235e-10 4.51019e-11 -10.2786 0.731801 -0.0259123 1.20243e-10 1.19232e-10 4.50907e-11 -2.22167 -0.733487 0.20892 -2.03217e-16 0.0 -3.88251e-19 -19.2323 -45.6812 -11.3557 -0.190736 30.4492 0.424995 -3.80406 -5.09556 -17.1907 2.03217e-16 0.0 3.88251e-19 -8.55874 13.2998 -1.41824 0.00336991 10.0034 -0.277784 0.33886 4.05109 4.87266
